<svg xmlns="http://www.w3.org/2000/svg" width="29.674" height="29.675" viewBox="0 0 29.674 29.675">
  <g id="_001-package" data-name="001-package" transform="translate(-0.01)">
    <path id="Path_566" data-name="Path 566" d="M25.907,154.041l-11.06-3.666-11.06,3.666-3.777,6,3.477,1.152v6.376l11.36,3.766,11.36-3.766v-6.376l3.477-1.152Zm-3.333.727-7.728,2.562-7.728-2.562,7.728-2.562Zm-19.91,4.32,2.065-3.28,8.791,2.914L11.455,162Zm2.561,2.681,6.975,2.312,1.777-2.822v7.955l-8.752-2.9Zm10.491,7.445v-7.955l1.777,2.822,6.975-2.312v4.544ZM18.239,162l-2.065-3.28,8.791-2.914,2.065,3.28Z" transform="translate(0 -141.659)"/>
    <path id="Path_567" data-name="Path 567" d="M240.995,0h1.739V5.806h-1.739Z" transform="translate(-227.018)"/>
    <path id="Path_568" data-name="Path 568" d="M0,0H1.739V5.806H0Z" transform="matrix(0.866, -0.5, 0.5, 0.866, 5.801, 2.657)"/>
    <path id="Path_569" data-name="Path 569" d="M0,0H5.806V1.739H0Z" transform="matrix(0.5, -0.866, 0.866, 0.5, 19.484, 6.816)"/>
  </g>
</svg>
