<svg xmlns="http://www.w3.org/2000/svg" width="34.82" height="24.14" viewBox="0 0 34.82 24.14">
  <g id="delivery" transform="translate(0 -78.521)">
    <g id="Group_451" data-name="Group 451" transform="translate(21.909 93.883)">
      <g id="Group_450" data-name="Group 450" transform="translate(0 0)">
        <path id="Path_556" data-name="Path 556" d="M326.54,304.4a4.389,4.389,0,1,0,4.389,4.389A4.394,4.394,0,0,0,326.54,304.4Zm0,6.584a2.195,2.195,0,1,1,2.195-2.195A2.2,2.2,0,0,1,326.54,310.987Z" transform="translate(-322.151 -304.403)"/>
      </g>
    </g>
    <g id="Group_453" data-name="Group 453" transform="translate(6.913 93.883)">
      <g id="Group_452" data-name="Group 452" transform="translate(0 0)">
        <path id="Path_557" data-name="Path 557" d="M106.036,304.4a4.389,4.389,0,1,0,4.389,4.389A4.394,4.394,0,0,0,106.036,304.4Zm0,6.584a2.195,2.195,0,1,1,2.195-2.195A2.2,2.2,0,0,1,106.036,310.987Z" transform="translate(-101.647 -304.403)"/>
      </g>
    </g>
    <g id="Group_455" data-name="Group 455" transform="translate(22.494 80.716)">
      <g id="Group_454" data-name="Group 454" transform="translate(0 0)">
        <path id="Path_558" data-name="Path 558" d="M337.516,111.394a1.1,1.1,0,0,0-.981-.6h-5.779v2.195h5.1l2.988,5.943,1.961-.986Z" transform="translate(-330.756 -110.79)"/>
      </g>
    </g>
    <g id="Group_457" data-name="Group 457" transform="translate(14.703 97.211)">
      <g id="Group_456" data-name="Group 456" transform="translate(0 0)">
        <rect id="Rectangle_1457" data-name="Rectangle 1457" width="8.303" height="2.195"/>
      </g>
    </g>
    <g id="Group_459" data-name="Group 459" transform="translate(3.109 97.211)">
      <g id="Group_458" data-name="Group 458" transform="translate(0 0)">
        <path id="Path_559" data-name="Path 559" d="M50.616,353.345h-3.8a1.1,1.1,0,0,0,0,2.194h3.8a1.1,1.1,0,1,0,0-2.194Z" transform="translate(-45.715 -353.345)"/>
      </g>
    </g>
    <g id="Group_461" data-name="Group 461" transform="translate(3.109 78.521)">
      <g id="Group_460" data-name="Group 460" transform="translate(0 0)">
        <path id="Path_560" data-name="Path 560" d="M77.2,90.5l-2.158-2.78a1.1,1.1,0,0,0-.866-.424H66.2V79.618a1.1,1.1,0,0,0-1.1-1.1H46.812a1.1,1.1,0,1,0,0,2.194H64V88.4a1.1,1.1,0,0,0,1.1,1.1h8.533l1.6,2.058v5.659H72.2a1.1,1.1,0,0,0,0,2.194h4.133a1.1,1.1,0,0,0,1.1-1.1V91.176A1.1,1.1,0,0,0,77.2,90.5Z" transform="translate(-45.715 -78.521)"/>
      </g>
    </g>
    <g id="Group_463" data-name="Group 463" transform="translate(1.792 91.652)">
      <g id="Group_462" data-name="Group 462" transform="translate(0 0)">
        <path id="Path_561" data-name="Path 561" d="M32.5,271.6H27.45a1.1,1.1,0,0,0,0,2.194H32.5a1.1,1.1,0,0,0,0-2.194Z" transform="translate(-26.353 -271.597)"/>
      </g>
    </g>
    <g id="Group_465" data-name="Group 465" transform="translate(0 87.336)">
      <g id="Group_464" data-name="Group 464" transform="translate(0 0)">
        <path id="Path_562" data-name="Path 562" d="M10.461,208.134H1.1a1.1,1.1,0,0,0,0,2.195h9.363a1.1,1.1,0,0,0,0-2.195Z" transform="translate(0 -208.134)"/>
      </g>
    </g>
    <g id="Group_467" data-name="Group 467" transform="translate(1.792 83.02)">
      <g id="Group_466" data-name="Group 466" transform="translate(0 0)">
        <path id="Path_563" data-name="Path 563" d="M36.814,144.672H27.45a1.1,1.1,0,1,0,0,2.194h9.363a1.1,1.1,0,0,0,0-2.194Z" transform="translate(-26.353 -144.672)"/>
      </g>
    </g>
  </g>
</svg>
