<svg id="_003-free-delivery-1" data-name="003-free-delivery-1" xmlns="http://www.w3.org/2000/svg" width="30.397" height="22.501" viewBox="0 0 30.397 22.501">
  <path id="Path_582" data-name="Path 582" d="M60.891,101.306a.89.89,0,0,0,.891-.891V98.544H61.8a.891.891,0,1,0,0-1.781h-.017v-.981H61.8A.891.891,0,0,0,61.8,94h-.907a.89.89,0,0,0-.891.891v5.525A.89.89,0,0,0,60.891,101.306Zm0,0" transform="translate(-56.438 -88.419)"/>
  <path id="Path_583" data-name="Path 583" d="M243.891,101.306h.92a.891.891,0,0,0,0-1.781h-.03v-.981h.017a.891.891,0,1,0,0-1.781h-.017v-.981h.017a.891.891,0,1,0,0-1.781h-.907a.89.89,0,0,0-.891.891v5.525A.89.89,0,0,0,243.891,101.306Zm0,0" transform="translate(-228.573 -88.419)"/>
  <path id="Path_584" data-name="Path 584" d="M190.891,101.306h.92a.891.891,0,1,0,0-1.781h-.03v-.981h.017a.891.891,0,1,0,0-1.781h-.017v-.981h.017a.891.891,0,1,0,0-1.781h-.907a.89.89,0,0,0-.891.891v5.525A.89.89,0,0,0,190.891,101.306Zm0,0" transform="translate(-178.72 -88.419)"/>
  <path id="Path_585" data-name="Path 585" d="M110.891,101.306a.89.89,0,0,0,.891-.891v-.343l.973.973a.89.89,0,1,0,1.259-1.259L112.7,98.47A2.29,2.29,0,0,0,112.019,94l-1.128,0a.891.891,0,0,0-.891.891v5.525A.89.89,0,0,0,110.891,101.306Zm.891-5.521h.237a.467.467,0,0,1,.475.534.476.476,0,0,1-.475.475h-.237Zm0,0" transform="translate(-103.469 -88.419)"/>
  <path id="Path_586" data-name="Path 586" d="M27.642,10.746,25.9,7.816A6.606,6.606,0,0,0,20.72,4.54V.891A.89.89,0,0,0,19.829,0H.891A.89.89,0,0,0,0,.891v18a.89.89,0,0,0,.891.891h2.03a3.414,3.414,0,0,0,6.685,0H19.829a.891.891,0,0,0,.137-.012h1.3a3.414,3.414,0,0,0,6.69,0h1.553a.89.89,0,0,0,.891-.891V13.536A2.793,2.793,0,0,0,27.642,10.746ZM6.263,20.72A1.633,1.633,0,1,1,7.9,19.087,1.634,1.634,0,0,1,6.263,20.72ZM18.939,18H9.5a3.413,3.413,0,0,0-6.471,0H1.781V1.781H18.939Zm5.67,2.719a1.633,1.633,0,1,1,1.633-1.633A1.634,1.634,0,0,1,24.608,20.72Zm4.007-2.731H27.84a3.413,3.413,0,0,0-6.463,0H20.72V6.329a4.794,4.794,0,0,1,3.646,2.4l1.2,2.019H23.154a.891.891,0,0,0,0,1.781h4.453a1.01,1.01,0,0,1,1.009,1.009Zm0,0"/>
</svg>
