<svg xmlns="http://www.w3.org/2000/svg" width="28.92" height="28.919" viewBox="0 0 28.92 28.919">
  <g id="_002-box" data-name="002-box" transform="translate(0 -0.011)">
    <g id="Group_476" data-name="Group 476" transform="translate(3.615 19.639)">
      <g id="Group_475" data-name="Group 475">
        <path id="Path_570" data-name="Path 570" d="M68.871,349.122l-3.615-1.536a.9.9,0,0,0-.7,1.663l3.615,1.536a.9.9,0,1,0,.7-1.663Z" transform="translate(-63.999 -347.514)"/>
      </g>
    </g>
    <g id="Group_478" data-name="Group 478" transform="translate(0 0.011)">
      <g id="Group_477" data-name="Group 477">
        <path id="Path_571" data-name="Path 571" d="M28.907,6.294a.922.922,0,0,0-.045-.277.812.812,0,0,0-.085-.136c-.02-.033-.034-.061-.056-.09a.868.868,0,0,0-.376-.291c-.005,0-.007-.007-.013-.009L13.873.071A.884.884,0,0,0,13.2.084L.548,5.5c-.013.005-.018.02-.031.025A.875.875,0,0,0,.2,5.8a.944.944,0,0,0-.069.1.736.736,0,0,0-.06.087A.907.907,0,0,0,0,6.334V22.6a.9.9,0,0,0,.548.831L13.2,28.857h0a.9.9,0,0,0,.354.072.917.917,0,0,0,.318-.058l.033-.013h0l14.426-5.41a.9.9,0,0,0,.586-.846V6.336C28.92,6.32,28.907,6.309,28.907,6.294ZM12.652,26.654,1.807,22.007V7.708l10.845,4.647Zm.925-15.87L3.2,6.336,13.578,1.89,25.442,6.336,22.614,7.4,17.542,5.125a.888.888,0,0,0-.793.031L13.2,6.661a.907.907,0,0,0,.009,1.672L16.5,9.691Zm6.3-.434,1.807-.678v4.4l-1.807.678Zm-.9-1.592L15.891,7.484l1.28-.544L20.208,8.3Zm8.13,13.218L14.46,26.721V12.384l3.615-1.356V16.06a.9.9,0,0,0,.9.9.924.924,0,0,0,.318-.058l3.615-1.356A.905.905,0,0,0,23.5,14.7V8.995l3.615-1.356Z" transform="translate(0 -0.011)"/>
      </g>
    </g>
  </g>
</svg>
